<?xml version="1.0" encoding="UTF-8" standalone="no"?>
<!DOCTYPE svg PUBLIC "-//W3C//DTD SVG 1.1//EN"
 "http://www.w3.org/Graphics/SVG/1.1/DTD/svg11.dtd">
<!-- Generated by graphviz version 2.26.0 (20091210.2329)
 -->
<!-- Title: G Pages: 1 -->
<svg width="222pt" height="374pt"
 viewBox="0.00 0.00 222.00 374.00" xmlns="http://www.w3.org/2000/svg" xmlns:xlink="http://www.w3.org/1999/xlink">
<g id="graph1" class="graph" transform="scale(1 1) rotate(0) translate(4 370)">
<title>G</title>
<polygon fill="white" stroke="white" points="-4,5 -4,-370 219,-370 219,5 -4,5"/>
<g id="graph2" class="cluster"><title>cluster0</title>
<polygon fill="none" stroke="black" points="64,-156 64,-358 206,-358 206,-156 64,-156"/>
</g>
<g id="graph3" class="cluster"><title>cluster1</title>
<polygon fill="none" stroke="black" points="64,-8 64,-136 206,-136 206,-8 64,-8"/>
</g>
<!-- a -->
<g id="node2" class="node"><title>a</title>
<ellipse fill="none" stroke="black" cx="135" cy="-331" rx="27" ry="19.0919"/>
<text text-anchor="middle" x="135" y="-327.9" font-family="Times Roman,serif" font-size="14.00">a</text>
</g>
<!-- b -->
<g id="node4" class="node"><title>b</title>
<ellipse fill="none" stroke="black" cx="99" cy="-257" rx="27" ry="19.0919"/>
<text text-anchor="middle" x="99" y="-253.9" font-family="Times Roman,serif" font-size="14.00">b</text>
</g>
<!-- a&#45;&gt;b -->
<g id="edge3" class="edge"><title>a&#45;&gt;b</title>
<path fill="none" stroke="black" d="M126.101,-312.708C121.916,-304.105 116.84,-293.671 112.218,-284.17"/>
<polygon fill="black" stroke="black" points="115.319,-282.543 107.797,-275.082 109.024,-285.605 115.319,-282.543"/>
</g>
<!-- c -->
<g id="node6" class="node"><title>c</title>
<ellipse fill="none" stroke="black" cx="171" cy="-257" rx="27" ry="19.0919"/>
<text text-anchor="middle" x="171" y="-253.9" font-family="Times Roman,serif" font-size="14.00">c</text>
</g>
<!-- a&#45;&gt;c -->
<g id="edge5" class="edge"><title>a&#45;&gt;c</title>
<path fill="none" stroke="black" d="M143.899,-312.708C148.084,-304.105 153.16,-293.671 157.782,-284.17"/>
<polygon fill="black" stroke="black" points="160.976,-285.605 162.203,-275.082 154.681,-282.543 160.976,-285.605"/>
</g>
<!-- d -->
<g id="node8" class="node"><title>d</title>
<ellipse fill="none" stroke="black" cx="99" cy="-183" rx="27" ry="19.0919"/>
<text text-anchor="middle" x="99" y="-179.9" font-family="Times Roman,serif" font-size="14.00">d</text>
</g>
<!-- b&#45;&gt;d -->
<g id="edge7" class="edge"><title>b&#45;&gt;d</title>
<path fill="none" stroke="black" d="M99,-237.943C99,-230.149 99,-220.954 99,-212.338"/>
<polygon fill="black" stroke="black" points="102.5,-212.249 99,-202.249 95.5001,-212.249 102.5,-212.249"/>
</g>
<!-- f -->
<g id="node15" class="node"><title>f</title>
<ellipse fill="none" stroke="black" cx="99" cy="-35" rx="27" ry="19.0919"/>
<text text-anchor="middle" x="99" y="-31.9" font-family="Times Roman,serif" font-size="14.00">f</text>
</g>
<!-- b&#45;&gt;f -->
<g id="edge16" class="edge"><title>b&#45;&gt;f</title>
<path fill="none" stroke="black" d="M113.497,-240.477C121.544,-230.178 130.761,-216.217 135,-202 142.132,-178.082 145.688,-161.984 145.668,-145.865"/>
<polygon fill="black" stroke="black" points="149.158,-145.58 145.193,-135.755 142.166,-145.908 149.158,-145.58"/>
</g>
<!-- c&#45;&gt;d -->
<g id="edge9" class="edge"><title>c&#45;&gt;d</title>
<path fill="none" stroke="black" d="M155.731,-241.307C145.775,-231.075 132.611,-217.545 121.471,-206.095"/>
<polygon fill="black" stroke="black" points="123.978,-203.653 114.496,-198.926 118.961,-208.534 123.978,-203.653"/>
</g>
<!-- e -->
<g id="node11" class="node"><title>e</title>
<ellipse fill="none" stroke="black" cx="99" cy="-109" rx="27" ry="19.0919"/>
<text text-anchor="middle" x="99" y="-105.9" font-family="Times Roman,serif" font-size="14.00">e</text>
</g>
<!-- c&#45;&gt;e -->
<g id="edge22" class="edge"><title>c&#45;&gt;e</title>
<path fill="none" stroke="black" d="M135,-156C130.857,-148.381 125.535,-140.679 120.26,-133.776"/>
<polygon fill="black" stroke="black" points="122.662,-131.172 113.697,-125.526 117.184,-135.53 122.662,-131.172"/>
</g>
<!-- g -->
<g id="node13" class="node"><title>g</title>
<ellipse fill="none" stroke="black" cx="171" cy="-35" rx="27" ry="19.0919"/>
<text text-anchor="middle" x="171" y="-31.9" font-family="Times Roman,serif" font-size="14.00">g</text>
</g>
<!-- c&#45;&gt;g -->
<g id="edge20" class="edge"><title>c&#45;&gt;g</title>
<path fill="none" stroke="black" d="M171,-156.031C171,-152.734 171,-149.425 171,-146.116"/>
<polygon fill="black" stroke="black" points="174.5,-145.675 171,-135.675 167.5,-145.675 174.5,-145.675"/>
</g>
<!-- d&#45;&gt;e -->
<g id="edge18" class="edge"><title>d&#45;&gt;e</title>
<path fill="none" stroke="black" d="M99,-163.943C99,-156.149 99,-146.954 99,-138.338"/>
<polygon fill="black" stroke="black" points="102.5,-138.249 99,-128.249 95.5001,-138.249 102.5,-138.249"/>
</g>
<!-- h -->
<g id="node21" class="node"><title>h</title>
<ellipse fill="none" stroke="black" cx="27" cy="-109" rx="27" ry="19.0919"/>
<text text-anchor="middle" x="27" y="-105.9" font-family="Times Roman,serif" font-size="14.00">h</text>
</g>
<!-- d&#45;&gt;h -->
<g id="edge24" class="edge"><title>d&#45;&gt;h</title>
<path fill="none" stroke="black" d="M83.7307,-167.307C73.7753,-157.075 60.6114,-143.545 49.4705,-132.095"/>
<polygon fill="black" stroke="black" points="51.9777,-129.653 42.4956,-124.926 46.9606,-134.534 51.9777,-129.653"/>
</g>
<!-- e&#45;&gt;g -->
<g id="edge12" class="edge"><title>e&#45;&gt;g</title>
<path fill="none" stroke="black" d="M114.269,-93.3065C124.225,-83.0746 137.389,-69.545 148.529,-58.0947"/>
<polygon fill="black" stroke="black" points="151.039,-60.534 155.504,-50.926 146.022,-55.6525 151.039,-60.534"/>
</g>
<!-- e&#45;&gt;f -->
<g id="edge14" class="edge"><title>e&#45;&gt;f</title>
<path fill="none" stroke="black" d="M99,-89.9432C99,-82.1493 99,-72.9538 99,-64.3381"/>
<polygon fill="black" stroke="black" points="102.5,-64.2494 99,-54.2495 95.5001,-64.2495 102.5,-64.2494"/>
</g>
</g>
</svg>
