<?xml version="1.0" encoding="UTF-8" standalone="no"?>
<!DOCTYPE svg PUBLIC "-//W3C//DTD SVG 1.1//EN"
 "http://www.w3.org/Graphics/SVG/1.1/DTD/svg11.dtd">
<!-- Generated by graphviz version 2.26.0 (20091210.2329)
 -->
<!-- Title: G Pages: 1 -->
<svg width="582pt" height="102pt"
 viewBox="0.00 0.00 582.00 102.00" xmlns="http://www.w3.org/2000/svg" xmlns:xlink="http://www.w3.org/1999/xlink">
<g id="graph1" class="graph" transform="scale(1 1) rotate(0) translate(4 98)">
<title>G</title>
<polygon fill="white" stroke="white" points="-4,5 -4,-98 579,-98 579,5 -4,5"/>
<!-- a -->
<g id="node1" class="node"><title>a</title>
<ellipse fill="none" stroke="black" cx="74" cy="-75" rx="74.0934" ry="18"/>
<text text-anchor="start" x="25.5" y="-72.2333" font-family="Times Roman,serif" font-size="14.00">$$\sigma&#45;代数$$</text>
</g>
<!-- c -->
<g id="node3" class="node"><title>c</title>
<ellipse fill="none" stroke="black" cx="237" cy="-75" rx="51.8276" ry="19.0919"/>
<text text-anchor="middle" x="237" y="-71.9" font-family="Times Roman,serif" font-size="14.00">可测空间</text>
</g>
<!-- a&#45;&gt;c -->
<g id="edge2" class="edge"><title>a&#45;&gt;c</title>
<path fill="none" stroke="black" d="M148.345,-75C156.941,-75 165.644,-75 174.067,-75"/>
<polygon fill="black" stroke="black" points="174.177,-78.5001 184.177,-75 174.177,-71.5001 174.177,-78.5001"/>
</g>
<!-- b -->
<g id="node2" class="node"><title>b</title>
<ellipse fill="none" stroke="black" cx="237" cy="-19" rx="31.8198" ry="19.0919"/>
<text text-anchor="middle" x="237" y="-15.9" font-family="Times Roman,serif" font-size="14.00">测度</text>
</g>
<!-- d -->
<g id="node4" class="node"><title>d</title>
<ellipse fill="none" stroke="black" cx="379" cy="-47" rx="51.8276" ry="19.0919"/>
<text text-anchor="middle" x="379" y="-43.9" font-family="Times Roman,serif" font-size="14.00">测度空间</text>
</g>
<!-- b&#45;&gt;d -->
<g id="edge6" class="edge"><title>b&#45;&gt;d</title>
<path fill="none" stroke="black" d="M267.463,-25.0067C283.558,-28.1804 303.833,-32.1782 322.667,-35.8922"/>
<polygon fill="black" stroke="black" points="322.162,-39.3599 332.651,-37.8607 323.517,-32.4921 322.162,-39.3599"/>
</g>
<!-- c&#45;&gt;d -->
<g id="edge3" class="edge"><title>c&#45;&gt;d</title>
<path fill="none" stroke="black" d="M283.103,-65.9092C295.752,-63.4151 309.607,-60.6831 322.756,-58.0903"/>
<polygon fill="black" stroke="black" points="323.508,-61.5095 332.642,-56.141 322.154,-54.6418 323.508,-61.5095"/>
</g>
<!-- e -->
<g id="node5" class="node"><title>e</title>
<ellipse fill="none" stroke="black" cx="521" cy="-47" rx="51.8276" ry="19.0919"/>
<text text-anchor="middle" x="521" y="-43.9" font-family="Times Roman,serif" font-size="14.00">概率空间</text>
</g>
<!-- d&#45;&gt;e -->
<g id="edge4" class="edge"><title>d&#45;&gt;e</title>
<path fill="none" stroke="black" d="M431.876,-47C440.377,-47 449.25,-47 457.961,-47"/>
<polygon fill="black" stroke="black" points="458.08,-50.5001 468.08,-47 458.08,-43.5001 458.08,-50.5001"/>
</g>
</g>
</svg>
