<?xml version="1.0" encoding="UTF-8" standalone="no"?>
<!DOCTYPE svg PUBLIC "-//W3C//DTD SVG 1.1//EN"
 "http://www.w3.org/Graphics/SVG/1.1/DTD/svg11.dtd">
<!-- Generated by graphviz version 2.26.0 (20091210.2329)
 -->
<!-- Title: G Pages: 1 -->
<svg width="552pt" height="102pt"
 viewBox="0.00 0.00 552.00 102.00" xmlns="http://www.w3.org/2000/svg" xmlns:xlink="http://www.w3.org/1999/xlink">
<g id="graph1" class="graph" transform="scale(1 1) rotate(0) translate(4 98)">
<title>G</title>
<polygon fill="white" stroke="white" points="-4,5 -4,-98 549,-98 549,5 -4,5"/>
<!-- a -->
<g id="node1" class="node"><title>a</title>
<ellipse fill="none" stroke="black" cx="59" cy="-75" rx="58.1882" ry="19.0919"/>
<text text-anchor="middle" x="59" y="-71.9" font-family="Times Roman,serif" font-size="14.00">sigma&#45;代数</text>
</g>
<!-- c -->
<g id="node3" class="node"><title>c</title>
<ellipse fill="none" stroke="black" cx="207" cy="-75" rx="51.8276" ry="19.0919"/>
<text text-anchor="middle" x="207" y="-71.9" font-family="Times Roman,serif" font-size="14.00">可测空间</text>
</g>
<!-- a&#45;&gt;c -->
<g id="edge2" class="edge"><title>a&#45;&gt;c</title>
<path fill="none" stroke="black" d="M117.919,-75C126.494,-75 135.351,-75 144.003,-75"/>
<polygon fill="black" stroke="black" points="144.036,-78.5001 154.036,-75 144.036,-71.5001 144.036,-78.5001"/>
</g>
<!-- b -->
<g id="node2" class="node"><title>b</title>
<ellipse fill="none" stroke="black" cx="207" cy="-19" rx="31.8198" ry="19.0919"/>
<text text-anchor="middle" x="207" y="-15.9" font-family="Times Roman,serif" font-size="14.00">测度</text>
</g>
<!-- d -->
<g id="node4" class="node"><title>d</title>
<ellipse fill="none" stroke="black" cx="349" cy="-47" rx="51.8276" ry="19.0919"/>
<text text-anchor="middle" x="349" y="-43.9" font-family="Times Roman,serif" font-size="14.00">测度空间</text>
</g>
<!-- b&#45;&gt;d -->
<g id="edge6" class="edge"><title>b&#45;&gt;d</title>
<path fill="none" stroke="black" d="M237.463,-25.0067C253.558,-28.1804 273.833,-32.1782 292.667,-35.8922"/>
<polygon fill="black" stroke="black" points="292.162,-39.3599 302.651,-37.8607 293.517,-32.4921 292.162,-39.3599"/>
</g>
<!-- c&#45;&gt;d -->
<g id="edge3" class="edge"><title>c&#45;&gt;d</title>
<path fill="none" stroke="black" d="M253.103,-65.9092C265.752,-63.4151 279.607,-60.6831 292.756,-58.0903"/>
<polygon fill="black" stroke="black" points="293.508,-61.5095 302.642,-56.141 292.154,-54.6418 293.508,-61.5095"/>
</g>
<!-- e -->
<g id="node5" class="node"><title>e</title>
<ellipse fill="none" stroke="black" cx="491" cy="-47" rx="51.8276" ry="19.0919"/>
<text text-anchor="middle" x="491" y="-43.9" font-family="Times Roman,serif" font-size="14.00">概率空间</text>
</g>
<!-- d&#45;&gt;e -->
<g id="edge4" class="edge"><title>d&#45;&gt;e</title>
<path fill="none" stroke="black" d="M401.876,-47C410.377,-47 419.25,-47 427.961,-47"/>
<polygon fill="black" stroke="black" points="428.08,-50.5001 438.08,-47 428.08,-43.5001 428.08,-50.5001"/>
</g>
</g>
</svg>
