<?xml version="1.0" encoding="UTF-8" standalone="no"?>
<!DOCTYPE svg PUBLIC "-//W3C//DTD SVG 1.1//EN"
 "http://www.w3.org/Graphics/SVG/1.1/DTD/svg11.dtd">
<!-- Generated by graphviz version 2.26.0 (20091210.2329)
 -->
<!-- Title: G Pages: 1 -->
<svg width="398pt" height="298pt"
 viewBox="0.00 0.00 398.00 298.00" xmlns="http://www.w3.org/2000/svg" xmlns:xlink="http://www.w3.org/1999/xlink">
<g id="graph1" class="graph" transform="scale(1 1) rotate(0) translate(4 294)">
<title>G</title>
<polygon fill="white" stroke="white" points="-4,5 -4,-294 395,-294 395,5 -4,5"/>
<!-- sigma -->
<g id="node1" class="node"><title>sigma</title>
<ellipse fill="none" stroke="red" cx="53" cy="-35" rx="34.8574" ry="35.3553"/>
<text text-anchor="middle" x="53" y="-31.9" font-family="Times Roman,serif" font-size="14.00" fill="red">sigma</text>
</g>
<!-- 代数 -->
<g id="node2" class="node"><title>代数</title>
<ellipse fill="none" stroke="red" cx="53" cy="-120" rx="31.8198" ry="31.8198"/>
<text text-anchor="middle" x="53" y="-116.9" font-family="Times Roman,serif" font-size="14.00" fill="red">代数</text>
</g>
<!-- 测度 -->
<g id="node3" class="node"><title>测度</title>
<ellipse fill="none" stroke="red" cx="53" cy="-258" rx="31.8198" ry="31.8198"/>
<text text-anchor="middle" x="53" y="-254.9" font-family="Times Roman,serif" font-size="14.00" fill="red">测度</text>
</g>
<!-- 测度空间 -->
<g id="node5" class="node"><title>测度空间</title>
<ellipse fill="none" stroke="black" cx="195" cy="-223" rx="51.8276" ry="19.0919"/>
<text text-anchor="middle" x="195" y="-219.9" font-family="Times Roman,serif" font-size="14.00">测度空间</text>
</g>
<!-- 测度&#45;&gt;测度空间 -->
<g id="edge5" class="edge"><title>测度&#45;&gt;测度空间</title>
<path fill="none" stroke="black" d="M84.1625,-250.319C100.987,-246.172 122.224,-240.938 141.596,-236.163"/>
<polygon fill="black" stroke="black" points="142.651,-239.508 151.523,-233.716 140.975,-232.711 142.651,-239.508"/>
</g>
<!-- 可测空间 -->
<g id="node4" class="node"><title>可测空间</title>
<ellipse fill="none" stroke="black" cx="53" cy="-189" rx="51.8276" ry="19.0919"/>
<text text-anchor="middle" x="53" y="-185.9" font-family="Times Roman,serif" font-size="14.00">可测空间</text>
</g>
<!-- 可测空间&#45;&gt;测度空间 -->
<g id="edge2" class="edge"><title>可测空间&#45;&gt;测度空间</title>
<path fill="none" stroke="black" d="M97.1513,-199.571C111.043,-202.898 126.542,-206.609 141.035,-210.079"/>
<polygon fill="black" stroke="black" points="140.336,-213.51 150.876,-212.435 141.966,-206.703 140.336,-213.51"/>
</g>
<!-- 概率空间 -->
<g id="node6" class="node"><title>概率空间</title>
<ellipse fill="none" stroke="black" cx="337" cy="-223" rx="51.8276" ry="19.0919"/>
<text text-anchor="middle" x="337" y="-219.9" font-family="Times Roman,serif" font-size="14.00">概率空间</text>
</g>
<!-- 测度空间&#45;&gt;概率空间 -->
<g id="edge3" class="edge"><title>测度空间&#45;&gt;概率空间</title>
<path fill="none" stroke="black" d="M247.876,-223C256.377,-223 265.25,-223 273.961,-223"/>
<polygon fill="black" stroke="black" points="274.08,-226.5 284.08,-223 274.08,-219.5 274.08,-226.5"/>
</g>
</g>
</svg>
