<?xml version="1.0" encoding="UTF-8" standalone="no"?>
<!DOCTYPE svg PUBLIC "-//W3C//DTD SVG 1.1//EN"
 "http://www.w3.org/Graphics/SVG/1.1/DTD/svg11.dtd">
<!-- Generated by graphviz version 2.26.0 (20091210.2329)
 -->
<!-- Title: G Pages: 1 -->
<svg width="506pt" height="160pt"
 viewBox="0.00 0.00 506.00 160.00" xmlns="http://www.w3.org/2000/svg" xmlns:xlink="http://www.w3.org/1999/xlink">
<g id="graph1" class="graph" transform="scale(1 1) rotate(0) translate(4 156)">
<title>G</title>
<polygon fill="white" stroke="white" points="-4,5 -4,-156 503,-156 503,5 -4,5"/>
<!-- sigma -->
<g id="node1" class="node"><title>sigma</title>
<ellipse fill="none" stroke="red" cx="36" cy="-35" rx="34.8574" ry="35.3553"/>
<text text-anchor="middle" x="36" y="-31.9" font-family="Times Roman,serif" font-size="14.00" fill="red">sigma</text>
</g>
<!-- 代数 -->
<g id="node2" class="node"><title>代数</title>
<ellipse fill="none" stroke="red" cx="36" cy="-120" rx="31.8198" ry="31.8198"/>
<text text-anchor="middle" x="36" y="-116.9" font-family="Times Roman,serif" font-size="14.00" fill="red">代数</text>
</g>
<!-- 可测空间 -->
<g id="node4" class="node"><title>可测空间</title>
<ellipse fill="none" stroke="black" cx="161" cy="-120" rx="51.8276" ry="19.0919"/>
<text text-anchor="middle" x="161" y="-116.9" font-family="Times Roman,serif" font-size="14.00">可测空间</text>
</g>
<!-- 代数&#45;&gt;可测空间 -->
<g id="edge2" class="edge"><title>代数&#45;&gt;可测空间</title>
<path fill="none" stroke="black" d="M68.1906,-120C77.3051,-120 87.5543,-120 97.8277,-120"/>
<polygon fill="black" stroke="black" points="98.0681,-123.5 108.068,-120 98.068,-116.5 98.0681,-123.5"/>
</g>
<!-- 测度 -->
<g id="node3" class="node"><title>测度</title>
<ellipse fill="none" stroke="red" cx="161" cy="-51" rx="31.8198" ry="31.8198"/>
<text text-anchor="middle" x="161" y="-47.9" font-family="Times Roman,serif" font-size="14.00" fill="red">测度</text>
</g>
<!-- 测度空间 -->
<g id="node5" class="node"><title>测度空间</title>
<ellipse fill="none" stroke="black" cx="303" cy="-85" rx="51.8276" ry="19.0919"/>
<text text-anchor="middle" x="303" y="-81.9" font-family="Times Roman,serif" font-size="14.00">测度空间</text>
</g>
<!-- 测度&#45;&gt;测度空间 -->
<g id="edge6" class="edge"><title>测度&#45;&gt;测度空间</title>
<path fill="none" stroke="black" d="M192.163,-58.4614C208.848,-62.4565 229.873,-67.4907 249.115,-72.0979"/>
<polygon fill="black" stroke="black" points="248.442,-75.5357 258.982,-74.4605 250.072,-68.7281 248.442,-75.5357"/>
</g>
<!-- 可测空间&#45;&gt;测度空间 -->
<g id="edge3" class="edge"><title>可测空间&#45;&gt;测度空间</title>
<path fill="none" stroke="black" d="M204.763,-109.213C218.8,-105.754 234.511,-101.881 249.18,-98.2654"/>
<polygon fill="black" stroke="black" points="250.265,-101.603 259.137,-95.8114 248.59,-94.8063 250.265,-101.603"/>
</g>
<!-- 概率空间 -->
<g id="node6" class="node"><title>概率空间</title>
<ellipse fill="none" stroke="black" cx="445" cy="-85" rx="51.8276" ry="19.0919"/>
<text text-anchor="middle" x="445" y="-81.9" font-family="Times Roman,serif" font-size="14.00">概率空间</text>
</g>
<!-- 测度空间&#45;&gt;概率空间 -->
<g id="edge4" class="edge"><title>测度空间&#45;&gt;概率空间</title>
<path fill="none" stroke="black" d="M355.876,-85C364.377,-85 373.25,-85 381.961,-85"/>
<polygon fill="black" stroke="black" points="382.08,-88.5001 392.08,-85 382.08,-81.5001 382.08,-88.5001"/>
</g>
</g>
</svg>
